<svg width="592" height="592" viewBox="0 0 592 592" fill="none" xmlns="http://www.w3.org/2000/svg">
<rect width="592" height="592" rx="160" fill="black"/>
<path d="M430.923 128.551L399.163 410.834L484.225 407.503C488.075 407.651 490 409.575 490 413.277L484.225 459.251C483.781 463.1 481.856 465.099 478.451 465.247L341.64 470.133C338.531 470.133 336.977 468.727 336.977 465.914L374.955 129.884C375.251 128.107 375.695 126.848 376.287 126.108C377.028 125.368 378.434 124.924 380.507 124.776L425.148 123.221C428.998 123.369 430.923 125.146 430.923 128.551Z" fill="white"/>
<path d="M140.422 129.884C140.719 128.107 141.237 126.849 141.977 126.108C142.717 125.368 150.195 124.331 164.409 122.999C178.623 121.666 198.093 121 222.82 121C247.694 121 266.794 128.181 280.12 142.543C293.446 156.757 300.109 176.302 300.109 201.176C300.109 248.112 294.853 302.155 284.34 363.306C278.714 395.732 269.608 419.866 257.022 435.709C245.473 450.219 227.41 459.769 202.831 464.359C191.726 466.284 178.179 467.542 162.188 468.134L106.886 470.133C103.629 469.985 102 468.579 102 465.914L140.422 129.884ZM191.282 172.748L164.187 414.61C186.248 412.685 201.499 408.391 209.938 401.728C218.526 395.065 224.522 382.406 227.928 363.75C231.333 345.094 234.665 319.627 237.922 287.349C241.328 255.071 243.03 228.642 243.03 208.061C243.03 195.92 240.069 186.888 234.147 180.966C228.224 175.043 220.155 172.082 209.938 172.082C199.87 172.082 193.651 172.304 191.282 172.748Z" fill="white"/>
</svg>
